<?xml version="1.0" standalone="no"?>
<!DOCTYPE svg PUBLIC "-//W3C//DTD SVG 20010904//EN"
 "http://www.w3.org/TR/2001/REC-SVG-20010904/DTD/svg10.dtd">
<svg version="1.0" xmlns="http://www.w3.org/2000/svg"
 width="345.000000pt" height="174.000000pt" viewBox="0 0 345.000000 174.000000"
 preserveAspectRatio="xMidYMid meet">

<g transform="translate(0.000000,174.000000) scale(0.100000,-0.100000)"
fill="#000000" stroke="none">
<path d="M431 1214 c-20 -26 -21 -38 -21 -356 l0 -329 25 -25 c25 -25 55 -26
80 -2 6 5 12 64 15 131 l5 122 125 5 c141 6 168 15 219 77 98 118 64 306 -68
375 -52 27 -58 28 -206 28 l-154 0 -20 -26z m331 -106 c51 -42 64 -127 28
-185 -28 -47 -49 -54 -158 -51 l-97 3 -3 123 -3 122 109 0 c72 0 113 -4 124
-12z"/>
<path d="M2353 1168 c-4 -7 -10 -35 -13 -63 l-5 -50 -45 -6 c-24 -3 -48 -12
-53 -20 -8 -13 -17 -11 -58 9 -32 16 -73 26 -117 29 -59 4 -73 1 -121 -24 -67
-34 -92 -66 -98 -127 -11 -95 30 -139 174 -186 105 -35 143 -60 143 -96 0 -33
-45 -64 -94 -64 -42 0 -118 29 -130 49 -4 6 -21 18 -37 27 -28 14 -33 14 -55
-1 -53 -35 -17 -103 76 -143 179 -78 374 20 345 174 -11 63 -64 106 -178 143
-109 37 -127 50 -127 91 0 73 122 82 202 15 36 -30 52 -31 79 -4 14 14 30 19
57 17 l37 -3 5 -192 c5 -192 5 -193 31 -219 65 -64 219 -46 219 26 0 38 -20
52 -67 44 -61 -9 -64 0 -61 182 l3 159 50 3 c78 5 109 48 65 92 -15 15 -33 20
-70 20 l-50 0 0 48 c0 35 -5 54 -18 65 -22 20 -77 22 -89 5z"/>
<path d="M1183 1059 c-18 -5 -47 -24 -66 -42 l-34 -32 -9 30 c-11 35 -55 56
-82 39 -39 -25 -43 -50 -40 -296 3 -254 4 -257 55 -273 17 -4 29 1 48 19 25
25 25 27 25 186 0 177 8 211 56 249 26 21 36 22 96 16 61 -6 67 -4 82 17 23
32 20 54 -10 77 -28 22 -68 25 -121 10z"/>
<path d="M1500 1061 c-71 -23 -141 -83 -176 -151 -27 -53 -32 -197 -9 -257 24
-63 85 -126 148 -154 126 -55 337 -5 337 81 0 52 -43 65 -107 30 -54 -29 -149
-28 -194 3 -35 24 -79 81 -79 103 0 11 38 14 193 14 181 0 195 1 212 20 14 16
17 30 12 74 -9 88 -60 164 -144 213 -47 27 -146 40 -193 24z m137 -120 c25
-12 48 -32 57 -50 32 -61 31 -61 -129 -61 -83 0 -145 4 -145 9 0 22 20 60 42
80 44 42 112 50 175 22z"/>
<path d="M2789 1054 c-64 -19 -140 -90 -170 -156 -31 -71 -32 -183 -2 -249 50
-110 148 -174 268 -173 172 1 289 120 289 294 0 211 -184 346 -385 284z m168
-115 c29 -14 52 -35 69 -65 23 -39 26 -53 22 -114 -4 -77 -21 -109 -78 -147
-46 -32 -124 -32 -170 0 -57 38 -74 70 -78 147 -4 57 0 75 19 109 46 83 132
111 216 70z"/>
</g>
</svg>
